<svg width="24" height="24" viewBox="0 0 24 24" fill="none" xmlns="http://www.w3.org/2000/svg">
<path d="M1.3656 2.64014C0.6168 2.64014 0 3.25694 0 4.00454V16.5601C0 17.3569 0.6432 18.0001 1.44 18.0001H3.4056C3.51888 18.6703 3.86554 19.2788 4.38425 19.7181C4.90297 20.1573 5.56031 20.3989 6.24 20.4001C6.91989 20.3992 7.57752 20.1577 8.09649 19.7184C8.61545 19.2792 8.96229 18.6705 9.0756 18.0001H13.5156C13.8696 18.0001 14.1864 17.8501 14.43 17.6257C14.6796 17.8441 14.9976 17.9965 15.36 18.0001H15.8856C15.9989 18.6703 16.3455 19.2788 16.8643 19.7181C17.383 20.1573 18.0403 20.3989 18.72 20.4001C20.304 20.4001 21.6 19.1041 21.6 17.5201C21.6 15.9361 20.304 14.6401 18.72 14.6401C18.0403 14.6414 17.383 14.883 16.8643 15.3222C16.3455 15.7614 15.9989 16.37 15.8856 17.0401H15.36C15.2341 17.0257 15.1173 16.9676 15.03 16.8757C14.9421 16.7931 14.8886 16.6804 14.88 16.5601V7.44014C14.88 7.26014 15.18 6.96014 15.36 6.96014H19.2C19.5768 6.96014 20.1072 7.36334 20.4756 7.80014C20.4804 7.80574 20.4852 7.81054 20.49 7.81454L20.5656 7.92014H18.24C17.4756 7.92014 16.8 8.53934 16.8 9.36014V11.2801C16.8 11.6797 16.98 12.0301 17.2356 12.2857C17.49 12.5401 17.8404 12.7201 18.24 12.7201H23.04V16.5601C23.04 16.7401 22.74 17.0401 22.56 17.0401H21.6V18.0001H22.56C23.3568 18.0001 24 17.3569 24 16.5601V11.9401C24 10.8409 23.2356 9.87014 23.2356 9.87014H23.22L21.24 7.23014V7.21454L21.2256 7.20014C20.7816 6.66614 20.1192 6.00014 19.2 6.00014H15.36C15.1896 6.00014 15.0324 6.03614 14.88 6.09014V4.03454C14.88 3.29774 14.2992 2.64014 13.53 2.64014H1.3656ZM1.3656 3.60014H13.53C13.7364 3.60014 13.92 3.79934 13.92 4.03454V16.6345C13.9205 16.6879 13.9103 16.7409 13.8901 16.7903C13.8699 16.8397 13.84 16.8847 13.8023 16.9224C13.7645 16.9602 13.7196 16.99 13.6702 17.0102C13.6208 17.0305 13.5678 17.0406 13.5144 17.0401H9.0744C8.96112 16.37 8.61446 15.7614 8.09575 15.3222C7.57703 14.883 6.91969 14.6414 6.24 14.6401C5.56011 14.6411 4.90248 14.8826 4.38351 15.3218C3.86455 15.7611 3.51772 16.3698 3.4044 17.0401H1.44C1.26 17.0401 0.96 16.7377 0.96 16.5601V4.00454C0.96 3.78014 1.1364 3.60014 1.3644 3.60014M18.24 8.88014H21.2856L22.4544 10.4401C22.4544 10.4401 22.89 11.1841 22.98 11.7601H18.24C18.1596 11.7601 18.03 11.7001 17.9256 11.5945C17.82 11.4901 17.76 11.3605 17.76 11.2801V9.36014C17.76 9.11774 18.0444 8.88014 18.24 8.88014ZM6.24 15.6001C7.308 15.6001 8.16 16.4521 8.16 17.5201C8.16 18.5869 7.308 19.4401 6.24 19.4401C5.172 19.4401 4.32 18.5869 4.32 17.5201C4.32 16.4533 5.172 15.6001 6.24 15.6001ZM18.72 15.6001C19.788 15.6001 20.64 16.4521 20.64 17.5201C20.64 18.5869 19.788 19.4401 18.72 19.4401C17.652 19.4401 16.8 18.5869 16.8 17.5201C16.8 16.4533 17.652 15.6001 18.72 15.6001Z" fill="white"/>
</svg>
