<svg width="23" height="24" viewBox="0 0 23 24" fill="none" xmlns="http://www.w3.org/2000/svg">
<g clip-path="url(#clip0_528_3518)">
<path d="M14.3754 22.8264V16.8109C14.3754 16.492 14.2487 16.1861 14.0232 15.9606C13.7977 15.7351 13.4918 15.6084 13.1729 15.6084H9.56385C9.24492 15.6084 8.93906 15.7351 8.71354 15.9606C8.48802 16.1861 8.36133 16.492 8.36133 16.8109V22.8264" stroke="white" stroke-width="1.29925" stroke-linecap="round" stroke-linejoin="round"/>
<path d="M2.94824 10.7969V18.0149C2.94824 20.2828 2.94824 21.4175 3.65272 22.122C4.35721 22.8265 5.49188 22.8265 7.75979 22.8265H14.9778C17.2457 22.8265 18.3804 22.8265 19.0849 22.122C19.7894 21.4175 19.7894 20.2828 19.7894 18.0149V10.7969" stroke="white" stroke-width="1.29925"/>
<path d="M2.49131 2.99469C2.71073 2.11986 2.819 1.68245 3.14526 1.42693C3.47296 1.17285 3.92337 1.17285 4.82562 1.17285H17.9105C18.8127 1.17285 19.2646 1.17285 19.5894 1.42693C19.9171 1.68245 20.0254 2.11986 20.2448 2.99469L21.6928 8.78645C21.8082 9.25273 21.8674 9.4866 21.8544 9.67571C21.8387 9.91565 21.7511 10.1453 21.603 10.3348C21.455 10.5243 21.2534 10.6648 21.0244 10.7382C20.8439 10.7959 20.5985 10.7959 20.1062 10.7959C19.4653 10.7959 19.1448 10.7959 18.8748 10.7339C18.5033 10.6467 18.1578 10.4727 17.8667 10.226C17.5755 9.97927 17.3471 9.66699 17.2002 9.31481C17.0934 9.05929 17.0414 8.75036 16.9389 8.13105C16.9286 8.03548 16.9088 7.94117 16.8798 7.84954C16.8687 7.83376 16.854 7.82087 16.8369 7.81197C16.8198 7.80307 16.8009 7.79843 16.7816 7.79843C16.7623 7.79843 16.7433 7.80307 16.7263 7.81197C16.7092 7.82087 16.6945 7.83376 16.6834 7.84954C16.6544 7.94117 16.6345 8.03548 16.6242 8.13105L16.5261 8.72004L16.5059 8.8413C16.4019 9.38161 16.1163 9.87011 15.6964 10.2257C15.2765 10.5812 14.7476 10.7825 14.1975 10.7959H13.9521C13.3809 10.782 12.8333 10.5656 12.4068 10.1854C11.9804 9.80518 11.7028 9.28587 11.6236 8.72004L11.5254 8.13105C11.5151 8.03548 11.4953 7.94117 11.4662 7.84954C11.4552 7.83376 11.4405 7.82087 11.4234 7.81197C11.4063 7.80307 11.3873 7.79843 11.3681 7.79843C11.3488 7.79843 11.3298 7.80307 11.3127 7.81197C11.2956 7.82087 11.2809 7.83376 11.2699 7.84954C11.2408 7.94117 11.221 8.03548 11.2107 8.13105L11.1125 8.72004L11.0923 8.8413C10.9884 9.38161 10.7027 9.87011 10.2828 10.2257C9.86294 10.5812 9.33405 10.7825 8.784 10.7959H8.53858C7.98853 10.7825 7.45964 10.5812 7.03974 10.2257C6.61984 9.87011 6.3342 9.38161 6.23025 8.8413L6.21004 8.72004L6.11188 8.13105C6.083 7.95781 6.06857 7.8712 6.05269 7.84954C6.04164 7.83376 6.02695 7.82087 6.00986 7.81197C5.99277 7.80307 5.97379 7.79843 5.95452 7.79843C5.93526 7.79843 5.91627 7.80307 5.89919 7.81197C5.8821 7.82087 5.86741 7.83376 5.85636 7.84954C5.84048 7.87264 5.82604 7.95926 5.79717 8.13105C5.69467 8.75036 5.6427 9.05929 5.53732 9.31481C5.39028 9.66716 5.16166 9.97955 4.87027 10.2263C4.57888 10.473 4.23307 10.647 3.86129 10.7339C3.59134 10.7974 3.26941 10.7974 2.62989 10.7974C2.13907 10.7974 1.89221 10.7974 1.71176 10.7396C1.48254 10.6662 1.28076 10.5254 1.1327 10.3356C0.984642 10.1459 0.897171 9.91591 0.881682 9.67571C0.868689 9.4866 0.926434 9.25273 1.04337 8.78645L2.49131 2.99469Z" stroke="white" stroke-width="1.29925"/>
</g>
<defs>
<clipPath id="clip0_528_3518">
<rect width="22.7368" height="24" fill="white"/>
</clipPath>
</defs>
</svg>
