<svg width="592" height="155" viewBox="0 0 592 155" fill="none" xmlns="http://www.w3.org/2000/svg">
<path d="M190.22 26.03H218.49V70.3H211.22V32.79H196.74L194.65 55.37C193.68 65.36 188.92 70.36 180.36 70.36H178.27V63.21H180.36C184.49 63.21 186.79 60.68 187.25 55.62L190.22 26.02V26.03Z" fill="#F4F4F4"/>
<path d="M237.03 63.4H256.19V70.29H229.75V26.02H255.49V32.85H237.02V44.36H253.84V51.06H237.02V63.39L237.03 63.4Z" fill="#F4F4F4"/>
<path d="M284.08 71.0598C277.54 71.0598 272.12 68.8998 267.79 64.5798C263.47 60.2598 261.31 54.7898 261.31 48.1698C261.31 41.5498 263.47 36.0798 267.79 31.7598C272.11 27.4398 277.54 25.2798 284.08 25.2798C287.54 25.2798 290.74 25.9498 293.69 27.2998C296.64 28.6498 299.12 30.5698 301.12 33.0598C303.12 35.5498 304.5 38.4398 305.26 41.7198H297.92C296.87 38.7698 295.12 36.4598 292.67 34.7898C290.22 33.1198 287.36 32.2898 284.07 32.2898C279.64 32.2898 275.97 33.7898 273.06 36.7798C270.15 39.7698 268.7 43.5798 268.7 48.1998C268.7 52.8198 270.15 56.6098 273.06 59.5798C275.97 62.5498 279.64 64.0398 284.07 64.0398C287.44 64.0398 290.37 63.1398 292.86 61.3498C295.35 59.5598 297.08 57.0998 298.05 53.9798H305.45C304.31 59.1698 301.8 63.3098 297.92 66.4098C294.04 69.5098 289.42 71.0598 284.07 71.0598H284.08Z" fill="#F4F4F4"/>
<path d="M340.619 26.0298H347.889V70.2998H340.619V51.0098H320.379V70.2998H313.109V26.0298H320.379V44.1198H340.619V26.0298Z" fill="#F4F4F4"/>
<path d="M389.45 70.2998L385.59 60.6898H365.86L362.07 70.2998H354.35L372.19 26.0298H379.02L397.3 70.2998H389.46H389.45ZM375.66 35.5098L368.39 54.1698H383.06L375.66 35.5098Z" fill="#F4F4F4"/>
<path d="M415.889 26.03H433.469V70.3H426.129V53.92H417.909L408.489 70.3H400.079L410.389 52.91C408.409 52.24 406.709 51.28 405.299 50.03C403.889 48.79 402.789 47.31 402.009 45.6C401.229 43.89 400.839 42.03 400.839 40C400.839 36.04 402.269 32.72 405.139 30.04C408.009 27.36 411.589 26.02 415.889 26.02V26.03ZM416.269 47.28H426.139V32.86H416.269C413.909 32.86 411.989 33.52 410.509 34.85C409.029 36.18 408.299 37.9 408.299 40C408.299 42.1 409.049 43.9 410.549 45.25C412.049 46.6 413.949 47.27 416.269 47.27V47.28Z" fill="#F4F4F4"/>
<path d="M198.949 101.92C201.769 101.92 204.339 102.55 206.629 103.82C208.929 105.09 210.729 106.84 212.039 109.07C213.349 111.31 213.999 113.79 213.999 116.53C213.999 120.7 212.569 124.18 209.699 126.97C206.829 129.75 203.249 131.14 198.949 131.14H189.839V146.19H182.569V101.92H198.949ZM198.569 124.25C199.749 124.25 200.839 124.06 201.829 123.68C202.819 123.3 203.669 122.77 204.389 122.1C205.109 121.43 205.669 120.6 206.069 119.63C206.469 118.66 206.669 117.63 206.669 116.53C206.669 115.05 206.319 113.74 205.629 112.58C204.929 111.42 203.969 110.5 202.749 109.83C201.529 109.16 200.139 108.82 198.579 108.82H189.849V124.25H198.579H198.569Z" fill="#F4F4F4"/>
<path d="M228.74 139.3H247.9V146.19H221.46V101.92H247.2V108.75H228.73V120.26H245.55V126.96H228.73V139.29L228.74 139.3Z" fill="#F4F4F4"/>
<path d="M278.579 122.98C279.799 123.65 280.859 124.54 281.739 125.64C282.629 126.74 283.309 127.96 283.799 129.31C284.279 130.66 284.529 132.09 284.529 133.61C284.529 137.57 283.029 140.79 280.039 143.25C277.049 145.72 273.339 146.95 268.909 146.95C266.079 146.95 263.519 146.4 261.229 145.31C258.929 144.21 257.089 142.62 255.699 140.53C254.309 138.44 253.569 136.05 253.489 133.35H260.569C260.699 134.78 261.139 136.04 261.899 137.11C262.659 138.19 263.639 139 264.839 139.54C266.039 140.09 267.399 140.36 268.919 140.36C271.359 140.36 273.389 139.71 274.989 138.4C276.589 137.09 277.389 135.39 277.389 133.28C277.389 131.17 276.669 129.53 275.239 128.22C273.809 126.91 271.949 126.26 269.669 126.26H264.989V120.06H269.669C271.689 120.06 273.339 119.47 274.599 118.29C275.859 117.11 276.499 115.59 276.499 113.74C276.499 111.89 275.779 110.31 274.349 109.15C272.919 107.99 271.099 107.41 268.909 107.41C266.839 107.41 265.079 107.99 263.629 109.15C262.179 110.31 261.339 111.82 261.129 113.67H254.169C254.379 109.92 255.889 106.88 258.689 104.56C261.489 102.24 264.879 101.08 268.839 101.08C273.009 101.08 276.499 102.23 279.309 104.53C282.109 106.83 283.519 109.85 283.519 113.61C283.519 115.55 283.089 117.34 282.219 118.99C281.359 120.63 280.139 121.96 278.579 122.97V122.98Z" fill="#F4F4F4"/>
<path d="M323.48 101.92H328.73V146.19H321.52V115.52L298.31 146.19H293.25V101.92H300.52V132.28L323.48 101.92Z" fill="#F4F4F4"/>
<path d="M375.28 139.43H379.71V154.8H373.01V146.2H342.72V154.8H336.02V139.43H339.5C340.05 139.05 340.51 138.65 340.89 138.23C341.27 137.81 341.65 137.22 342.03 136.46C342.41 135.7 342.73 134.9 342.98 134.06C343.23 133.22 343.5 132.05 343.77 130.55C344.04 129.05 344.29 127.51 344.5 125.93C344.71 124.35 344.95 122.26 345.23 119.67C345.5 117.08 345.76 114.46 345.99 111.83C346.22 109.2 346.51 105.9 346.84 101.93H375.3V139.44L375.28 139.43ZM353.34 108.69C352.58 118.98 351.8 126.24 351 130.48C350.2 134.72 348.98 137.7 347.33 139.43H367.95V108.69H353.34Z" fill="#F4F4F4"/>
<path d="M395.389 139.3H414.549V146.19H388.109V101.92H413.849V108.75H395.379V120.26H412.199V126.96H395.379V139.29L395.389 139.3Z" fill="#F4F4F4"/>
<path d="M450.799 101.92H458.069V146.19H450.799V126.9H430.559V146.19H423.289V101.92H430.559V120.01H450.799V101.92Z" fill="#F4F4F4"/>
<path d="M502.089 139.43H506.449V154.8H499.749V146.2H469.329V101.93H476.599V139.44H494.879V101.93H502.089V139.44V139.43Z" fill="#F4F4F4"/>
<path d="M545.16 101.92H550.41V146.19H543.2V115.52L519.99 146.19H514.93V101.92H522.2V132.28L545.16 101.92Z" fill="#F4F4F4"/>
<path d="M574.379 101.92H591.959V146.19H584.619V129.81H576.399L566.979 146.19H558.569L568.879 128.8C566.899 128.13 565.199 127.17 563.789 125.92C562.379 124.68 561.279 123.2 560.499 121.49C559.719 119.78 559.329 117.92 559.329 115.89C559.329 111.93 560.759 108.61 563.629 105.93C566.499 103.25 570.079 101.91 574.379 101.91V101.92ZM574.759 123.17H584.629V108.75H574.759C572.399 108.75 570.479 109.41 568.999 110.74C567.519 112.07 566.789 113.79 566.789 115.89C566.789 117.99 567.539 119.79 569.039 121.14C570.539 122.49 572.439 123.16 574.759 123.16V123.17Z" fill="#F4F4F4"/>
<path d="M10.4797 42.1699C14.7497 48.5599 19.1297 54.8899 23.3697 61.2899C27.6597 67.7599 31.3097 74.4999 31.3297 82.5699C31.3297 84.2099 32.3697 84.9499 33.7197 85.3899C43.6097 88.5699 52.5797 93.2999 60.0297 100.78C57.4397 93.5499 53.5097 87.2599 48.6997 81.4999C40.8997 72.1699 33.1697 62.7899 27.5897 51.8999C23.4397 43.7799 20.5097 35.3399 19.3397 26.4399C15.5397 30.7499 12.2097 35.4699 9.42969 40.5499C9.76969 41.0899 10.1097 41.6299 10.4697 42.1699H10.4797Z" fill="#B4825B"/>
<path d="M16.4 80.0699C17.74 80.4799 19.37 81.7099 20.47 80.6699C21.76 79.4499 20.39 77.7699 20.02 76.3199C19.91 75.8899 19.68 75.4999 19.49 75.0899C15.54 66.6299 9.83 59.2899 4.52 51.4199C2.01 58.3499 0.45 65.7299 0 73.4099C5.18 76.2799 10.73 78.2999 16.4 80.0599V80.0699Z" fill="#B4825B"/>
<path d="M51.9198 33.91C57.6698 35.63 63.7798 36.01 69.3398 38.47C70.7498 39.09 71.2398 38.59 70.9498 37.18C70.6998 35.98 70.3598 34.8 70.0398 33.62C66.8998 22.14 60.0098 12.98 52.4798 4.23999C44.0998 7.12999 36.3698 11.4 29.5498 16.78C29.9698 18.31 30.6698 19.67 31.5198 21C36.2898 28.54 43.9198 31.51 51.9198 33.91Z" fill="#B4825B"/>
<path d="M0.839935 85.2599C0.609935 85.1399 0.389922 85.0199 0.169922 84.8999C0.179922 85.0599 0.19993 85.2199 0.20993 85.3799C0.41993 85.3399 0.619935 85.2999 0.839935 85.2599Z" fill="#B4825B"/>
<path d="M58.8303 108.79C47.1803 98.1901 32.5903 94.5601 13.1403 94.2801C10.5303 94.1301 6.41031 94.7601 1.82031 95.4801C9.44031 125.13 36.0603 148.35 69.6903 154.49C75.9303 139.04 71.8303 120.62 58.8203 108.79H58.8303Z" fill="#B4825B"/>
<path d="M80.7703 67.46C87.8603 51.33 92.5403 34.56 93.2703 16.87C93.4803 11.72 93.4403 6.57 92.9203 1.45C88.0603 0.499997 83.0403 0 77.9103 0C72.7803 0 68.0503 0.469995 63.3203 1.37C76.0903 16.69 82.5603 34.34 81.9903 54.51C81.8703 58.83 81.1903 63.14 80.7703 67.46Z" fill="#B4825B"/>
<path d="M95.6104 101.45C96.0404 101.11 96.4904 100.78 96.8704 100.38C102.93 94.0699 110.21 89.7398 118.36 86.6898C125.88 83.8799 133.65 81.9099 141.28 79.4799C146.32 77.8699 151.25 76.0499 155.81 73.4799C155.47 67.5699 154.47 61.8399 152.89 56.3599C152.15 56.7599 151.39 57.1498 150.63 57.5298C144.57 60.5298 137.97 61.7398 131.49 63.2798C123.8 65.1098 116.98 68.1298 112.37 75.0298C110.34 78.0698 107.72 80.7099 105.46 83.5999C101.21 89.0399 97.6504 94.8799 95.1504 101.39C95.4204 101.44 95.5604 101.5 95.6104 101.46V101.45Z" fill="#B4825B"/>
<path d="M153.99 95.4697C145.23 94.2897 136.45 94.0098 127.54 95.1798C102 98.5498 83.8604 116.67 83.9004 139.8C83.5504 144.59 84.6704 149.56 86.6804 154.45C120.04 148.26 146.43 125.07 153.99 95.4598V95.4697Z" fill="#B4825B"/>
<path d="M59.4796 45.8599C50.1596 44.0299 41.0096 41.8299 32.5596 36.8799C34.3296 43.1999 37.2596 48.8799 40.6196 54.3999C48.7696 67.7999 61.2996 78.0199 68.1296 93.3299C68.4096 88.8999 68.4496 85.3699 68.8896 81.8999C69.7296 75.3899 71.0296 68.9399 71.7196 62.4099C72.7496 52.5899 69.1196 47.7599 59.4796 45.8699V45.8599Z" fill="#B4825B"/>
<path d="M99.79 74.5198C105.98 67.0798 112.34 59.7498 117.09 51.2398C120 46.0298 122.66 40.7198 124.46 34.2598C118.07 36.4498 112.11 36.7998 106.13 37.2498C103.15 37.4698 100.67 38.8498 99.91 42.3198C97.51 53.2198 93.57 63.6398 89.68 74.0698C86.53 82.5098 83.55 91.0398 84.45 100.3C88.08 90.7298 93.34 82.2798 99.8 74.5098L99.79 74.5198Z" fill="#B4825B"/>
<path d="M102.82 23.73C103.22 24.87 102.13 27.33 104.54 27.16C110.81 26.7 117.32 27.15 122.99 23.59C125.29 22.15 127.02 20.15 127.13 17.48C120.08 11.75 112.02 7.21996 103.25 4.20996C103.71 10.65 103.65 17.14 102.82 23.73Z" fill="#B4825B"/>
<path d="M128.43 53.0102C129.09 53.8402 130.11 53.2002 130.93 53.0002C134.83 52.0502 138.76 51.2102 142.58 50.0202C145.04 49.2502 147.36 48.2102 149.42 46.7902C146.15 39.3302 141.76 32.4702 136.44 26.4502C135.3 34.8902 132.7 42.9002 128.91 50.5402C128.54 51.2902 127.79 52.2202 128.42 53.0102H128.43Z" fill="#B4825B"/>
</svg>
