<svg width="142" height="38" viewBox="0 0 142 38" fill="none" xmlns="http://www.w3.org/2000/svg">
<path d="M45.8399 6.38978H52.5651V17.2571H50.8357V8.04921H47.391L46.8938 13.5921C46.663 16.0444 45.5306 17.2718 43.4943 17.2718H42.9971V15.5167H43.4943C44.4768 15.5167 45.0239 14.8956 45.1334 13.6535L45.8399 6.38733V6.38978Z" fill="#B4825B"/>
<path d="M56.976 15.5633H61.534V17.2546H55.2441V6.38733H61.3675V8.06394H56.9736V10.8894H60.975V12.5341H56.9736V15.5608L56.976 15.5633Z" fill="#B4825B"/>
<path d="M68.1688 17.4437C66.613 17.4437 65.3236 16.9134 64.2935 15.853C63.2658 14.7925 62.752 13.4497 62.752 11.8247C62.752 10.1996 63.2658 8.85685 64.2935 7.79638C65.3212 6.73592 66.613 6.20569 68.1688 6.20569C68.9919 6.20569 69.7532 6.37016 70.4549 6.70156C71.1567 7.03295 71.7467 7.50427 72.2225 8.11551C72.6983 8.72675 73.0266 9.43618 73.2074 10.2413H71.4612C71.2114 9.51718 70.7951 8.95013 70.2123 8.54018C69.6295 8.13023 68.9491 7.92649 68.1664 7.92649C67.1125 7.92649 66.2395 8.29471 65.5472 9.02869C64.8549 9.76266 64.51 10.6979 64.51 11.832C64.51 12.9662 64.8549 13.8965 65.5472 14.6256C66.2395 15.3547 67.1125 15.7204 68.1664 15.7204C68.9681 15.7204 69.6651 15.4995 70.2575 15.0601C70.8498 14.6207 71.2614 14.0168 71.4922 13.2509H73.2526C72.9814 14.5249 72.3843 15.5412 71.4612 16.3022C70.5382 17.0632 69.4391 17.4437 68.1664 17.4437H68.1688Z" fill="#B4825B"/>
<path d="M81.6197 6.38977H83.3491V17.2571H81.6197V12.5218H76.8047V17.2571H75.0752V6.38977H76.8047V10.8305H81.6197V6.38977Z" fill="#B4825B"/>
<path d="M93.2358 17.2571L92.3175 14.898H87.6239L86.7223 17.2571H84.8857L89.1298 6.38977H90.7546L95.1033 17.2571H93.2382H93.2358ZM89.9553 8.7169L88.2258 13.2975H91.7157L89.9553 8.7169Z" fill="#B4825B"/>
<path d="M99.5257 6.38978H103.708V17.2571H101.962V13.2362H100.006L97.7653 17.2571H95.7646L98.2173 12.9882C97.7463 12.8238 97.3419 12.5881 97.0064 12.2813C96.671 11.9769 96.4093 11.6136 96.2238 11.1938C96.0382 10.774 95.9454 10.3174 95.9454 9.81911C95.9454 8.84701 96.2856 8.03203 96.9684 7.37415C97.6511 6.71627 98.5028 6.38733 99.5257 6.38733V6.38978ZM99.6161 11.6062H101.964V8.0664H99.6161C99.0547 8.0664 98.598 8.22841 98.2459 8.5549C97.8938 8.88138 97.7201 9.3036 97.7201 9.81911C97.7201 10.3346 97.8985 10.7765 98.2554 11.1079C98.6122 11.4393 99.0642 11.6037 99.6161 11.6037V11.6062Z" fill="#B4825B"/>
<path d="M47.9172 25.0191C48.5881 25.0191 49.1995 25.1738 49.7442 25.4855C50.2914 25.7973 50.7196 26.2269 51.0312 26.7743C51.3429 27.3241 51.4975 27.9329 51.4975 28.6055C51.4975 29.6292 51.1573 30.4834 50.4746 31.1683C49.7918 31.8508 48.9401 32.192 47.9172 32.192H45.75V35.8864H44.0205V25.0191H47.9172ZM47.8268 30.5006C48.1075 30.5006 48.3668 30.454 48.6023 30.3607C48.8379 30.2674 49.0401 30.1373 49.2113 29.9728C49.3826 29.8084 49.5158 29.6046 49.611 29.3665C49.7062 29.1284 49.7537 28.8756 49.7537 28.6055C49.7537 28.2422 49.6705 27.9207 49.5063 27.6359C49.3398 27.3511 49.1114 27.1253 48.8212 26.9608C48.531 26.7964 48.2003 26.7129 47.8292 26.7129H45.7524V30.5006H47.8292H47.8268Z" fill="#B4825B"/>
<path d="M55.0034 34.1951H59.5614V35.8864H53.2715V25.0191H59.3949V26.6957H55.001V29.5212H59.0023V31.1659H55.001V34.1926L55.0034 34.1951Z" fill="#B4825B"/>
<path d="M66.8603 30.1889C67.1506 30.3534 67.4027 30.5718 67.6121 30.8419C67.8238 31.1119 67.9856 31.4114 68.1022 31.7428C68.2163 32.0742 68.2758 32.4252 68.2758 32.7983C68.2758 33.7704 67.919 34.5609 67.2077 35.1647C66.4964 35.7711 65.6138 36.073 64.5599 36.073C63.8867 36.073 63.2777 35.938 62.7329 35.6704C62.1857 35.4004 61.748 35.0101 61.4173 34.497C61.0867 33.984 60.9106 33.3973 60.8916 32.7345H62.5759C62.6068 33.0855 62.7115 33.3948 62.8923 33.6575C63.0731 33.9226 63.3062 34.1215 63.5917 34.254C63.8772 34.389 64.2007 34.4553 64.5623 34.4553C65.1428 34.4553 65.6257 34.2957 66.0063 33.9742C66.3869 33.6526 66.5773 33.2353 66.5773 32.7173C66.5773 32.1994 66.406 31.7968 66.0658 31.4752C65.7256 31.1536 65.2831 30.9941 64.7407 30.9941H63.6274V29.4721H64.7407C65.2213 29.4721 65.6138 29.3273 65.9135 29.0376C66.2133 28.7479 66.3655 28.3748 66.3655 27.9207C66.3655 27.4665 66.1942 27.0787 65.8541 26.7939C65.5139 26.5092 65.0809 26.3668 64.5599 26.3668C64.0675 26.3668 63.6488 26.5092 63.3038 26.7939C62.9589 27.0787 62.7591 27.4494 62.7091 27.9035H61.0534C61.1033 26.983 61.4625 26.2367 62.1287 25.6672C62.7948 25.0977 63.6012 24.8129 64.5433 24.8129C65.5353 24.8129 66.3655 25.0952 67.034 25.6598C67.7001 26.2244 68.0355 26.9658 68.0355 27.8888C68.0355 28.365 67.9333 28.8044 67.7263 29.2094C67.5217 29.612 67.2315 29.9385 66.8603 30.1864V30.1889Z" fill="#B4825B"/>
<path d="M77.5421 25.0191H78.791V35.8864H77.0758V28.3576L71.5543 35.8864H70.3506V25.0191H72.0801V32.4718L77.5421 25.0191Z" fill="#B4825B"/>
<path d="M89.8651 34.227H90.919V38H89.3251V35.8889H82.1193V38H80.5254V34.227H81.3533C81.4841 34.1338 81.5935 34.0356 81.6839 33.9325C81.7743 33.8294 81.8647 33.6845 81.9551 33.498C82.0455 33.3114 82.1217 33.115 82.1811 32.9088C82.2406 32.7026 82.3048 32.4154 82.3691 32.0472C82.4333 31.679 82.4928 31.3009 82.5427 30.9131C82.5927 30.5252 82.6498 30.0122 82.7164 29.3764C82.7806 28.7406 82.8425 28.0974 82.8972 27.4518C82.9519 26.8062 83.0209 25.9962 83.0994 25.0216H89.8698V34.2295L89.8651 34.227ZM84.6457 26.681C84.4649 29.207 84.2794 30.9892 84.089 32.03C83.8987 33.0708 83.6085 33.8024 83.216 34.227H88.1213V26.681H84.6457Z" fill="#B4825B"/>
<path d="M94.6489 34.1951H99.2069V35.8864H92.917V25.0191H99.0404V26.6957H94.6465V29.5212H98.6479V31.1659H94.6465V34.1926L94.6489 34.1951Z" fill="#B4825B"/>
<path d="M107.831 25.0191H109.56V35.8864H107.831V31.1511H103.016V35.8864H101.286V25.0191H103.016V29.4598H107.831V25.0191Z" fill="#B4825B"/>
<path d="M120.032 34.227H121.069V38H119.475V35.8889H112.238V25.0216H113.968V34.2295H118.316V25.0216H120.032V34.2295V34.227Z" fill="#B4825B"/>
<path d="M130.278 25.0191H131.527V35.8864H129.812V28.3576L124.291 35.8864H123.087V25.0191H124.816V32.4718L130.278 25.0191Z" fill="#B4825B"/>
<path d="M137.229 25.0191H141.411V35.8864H139.665V31.8655H137.709L135.468 35.8864H133.468L135.92 31.6176C135.449 31.4531 135.045 31.2174 134.71 30.9106C134.374 30.6062 134.112 30.2429 133.927 29.8231C133.741 29.4034 133.649 28.9468 133.649 28.4484C133.649 27.4764 133.989 26.6614 134.672 26.0035C135.354 25.3456 136.206 25.0167 137.229 25.0167V25.0191ZM137.319 30.2355H139.667V26.6957H137.319C136.758 26.6957 136.301 26.8578 135.949 27.1842C135.597 27.5107 135.423 27.9329 135.423 28.4484C135.423 28.964 135.602 29.4058 135.959 29.7372C136.315 30.0686 136.767 30.2331 137.319 30.2331V30.2355Z" fill="#B4825B"/>
<path d="M3.08084 10.3518C4.09665 11.9204 5.13862 13.4743 6.14729 15.0453C7.16786 16.6336 8.03617 18.2881 8.04092 20.2691C8.04092 20.6717 8.28833 20.8533 8.60949 20.9613C10.9623 21.742 13.0962 22.9031 14.8685 24.7392C14.2523 22.9644 13.3174 21.4204 12.1731 20.0064C10.3176 17.7161 8.47865 15.4135 7.1512 12.7403C6.16395 10.747 5.46692 8.67517 5.18858 6.49042C4.28459 7.54843 3.4924 8.70708 2.83105 9.95411C2.91194 10.0867 2.99282 10.2192 3.07846 10.3518H3.08084Z" fill="#1E4D2B"/>
<path d="M4.48935 19.6554C4.80812 19.7561 5.19589 20.058 5.45757 19.8027C5.76445 19.5032 5.43854 19.0908 5.35052 18.7349C5.32435 18.6293 5.26964 18.5336 5.22444 18.433C4.28476 16.3562 2.92639 14.5544 1.66317 12.6225C1.06606 14.3237 0.694943 16.1353 0.587891 18.0206C1.82018 18.7251 3.14049 19.2209 4.48935 19.653V19.6554Z" fill="#1E4D2B"/>
<path d="M12.9389 8.32416C14.3068 8.74639 15.7603 8.83966 17.083 9.44354C17.4184 9.59574 17.535 9.473 17.466 9.12687C17.4065 8.8323 17.3256 8.54264 17.2495 8.25297C16.5025 5.43489 14.8634 3.18631 13.0721 1.04083C11.0785 1.75026 9.23962 2.79845 7.61719 4.11912C7.7171 4.49471 7.88363 4.82856 8.08584 5.15504C9.22059 7.00595 11.0357 7.73502 12.9389 8.32416Z" fill="#1E4D2B"/>
<path d="M0.787322 20.9295C0.732606 20.9 0.680266 20.8706 0.62793 20.8411C0.630309 20.8804 0.635069 20.9197 0.637447 20.959C0.687405 20.9491 0.734985 20.9393 0.787322 20.9295Z" fill="#1E4D2B"/>
<path d="M14.5828 26.7055C11.8114 24.1035 8.3405 23.2124 3.71346 23.1437C3.09256 23.1068 2.11244 23.2615 1.02051 23.4382C2.83326 30.7167 9.16599 36.4167 17.1664 37.9239C18.6508 34.1313 17.6754 29.6095 14.5804 26.7055H14.5828Z" fill="#1E4D2B"/>
<path d="M19.8026 16.5599C21.4893 12.6004 22.6026 8.48372 22.7763 4.14121C22.8262 2.877 22.8167 1.61279 22.693 0.355942C21.5369 0.122738 20.3426 0 19.1222 0C17.9018 0 16.7766 0.115373 15.6514 0.336304C18.6893 4.09703 20.2284 8.42971 20.0928 13.381C20.0643 14.4415 19.9025 15.4995 19.8026 16.5599Z" fill="#1E4D2B"/>
<path d="M23.3331 24.9037C23.4354 24.8203 23.5424 24.7393 23.6328 24.6411C25.0744 23.0921 26.8063 22.0292 28.7451 21.2805C30.5341 20.5907 32.3825 20.1071 34.1977 19.5106C35.3967 19.1154 36.5695 18.6686 37.6543 18.0377C37.5734 16.587 37.3355 15.1804 36.9596 13.8351C36.7836 13.9333 36.6028 14.0291 36.422 14.1223C34.9803 14.8588 33.4102 15.1558 31.8687 15.5338C30.0393 15.9831 28.4169 16.7244 27.3202 18.4182C26.8372 19.1645 26.214 19.8125 25.6763 20.522C24.6653 21.8574 23.8184 23.291 23.2236 24.889C23.2879 24.9013 23.3212 24.916 23.3331 24.9062V24.9037Z" fill="#1E4D2B"/>
<path d="M37.2213 23.4358C35.1374 23.1461 33.0486 23.0774 30.929 23.3646C24.8532 24.1919 20.5378 28.6399 20.5473 34.3178C20.4641 35.4937 20.7305 36.7137 21.2087 37.9141C29.1448 36.3946 35.4228 30.702 37.2213 23.4333V23.4358Z" fill="#1E4D2B"/>
<path d="M14.7381 11.2576C12.5209 10.8084 10.3442 10.2683 8.33398 9.05322C8.75506 10.6046 9.45208 11.999 10.2514 13.354C12.1902 16.6434 15.171 19.1522 16.7959 22.9105C16.8625 21.823 16.872 20.9565 16.9767 20.1046C17.1765 18.5066 17.4858 16.9232 17.6499 15.3203C17.8949 12.9097 17.0314 11.724 14.7381 11.2601V11.2576Z" fill="#1E4D2B"/>
<path d="M24.3277 18.293C25.8003 16.4667 27.3133 14.6673 28.4433 12.5783C29.1355 11.2994 29.7683 9.99588 30.1965 8.4101C28.6764 8.94769 27.2585 9.03361 25.8359 9.14408C25.127 9.19808 24.537 9.53684 24.3562 10.3886C23.7853 13.0644 22.848 15.6222 21.9226 18.1826C21.1732 20.2544 20.4643 22.3483 20.6784 24.6215C21.542 22.2722 22.7933 20.1979 24.3301 18.2906L24.3277 18.293Z" fill="#1E4D2B"/>
<path d="M25.0479 5.82518C25.143 6.10503 24.8837 6.7089 25.457 6.66717C26.9486 6.55425 28.4973 6.66472 29.8462 5.79081C30.3933 5.43732 30.8049 4.94637 30.8311 4.29094C29.1539 2.88435 27.2365 1.77234 25.1501 1.03345C25.2596 2.61433 25.2453 4.20748 25.0479 5.82518Z" fill="#1E4D2B"/>
<path d="M31.1403 13.0128C31.2973 13.2166 31.54 13.0595 31.7351 13.0104C32.6629 12.7772 33.5978 12.571 34.5065 12.2788C35.0917 12.0898 35.6437 11.8345 36.1337 11.4859C35.3558 9.65468 34.3115 7.9707 33.0459 6.49292C32.7747 8.56475 32.1561 10.531 31.2545 12.4065C31.1665 12.5906 30.9881 12.8189 31.138 13.0128H31.1403Z" fill="#1E4D2B"/>
</svg>
