<svg width="16" height="16" viewBox="0 0 16 16" fill="none" xmlns="http://www.w3.org/2000/svg">
<g clip-path="url(#clip0_453_1943)">
<path d="M13.7259 10.5895C14.0409 10.7606 14.2771 10.8462 14.3559 11.0174C14.4346 11.1885 14.4346 11.8732 14.1196 12.6434C13.8834 13.4137 12.5448 14.1839 11.9936 14.2695C11.4424 14.3551 11.4424 14.783 8.21396 13.4137C5.06427 12.0444 3.01697 8.53551 2.85949 8.27876C2.702 8.02202 1.59961 6.48155 1.59961 4.76992C1.59961 3.14387 2.38703 2.28805 2.702 2.03131C3.01697 1.68898 3.33194 1.6034 3.56817 1.6034H4.19811C4.35559 1.6034 4.67056 1.51782 4.90679 2.20247C5.14301 2.80154 5.77295 4.51317 5.85169 4.68434C5.93044 4.8555 5.93044 5.02666 5.85169 5.28341C5.77295 5.54015 5.69421 5.71131 5.53672 5.88248C5.37924 6.05364 5.22176 6.31039 5.06427 6.48155C4.90679 6.65271 4.7493 6.82388 4.90679 7.1662C5.06427 7.50853 5.69421 8.53551 6.63912 9.47691C7.82025 10.675 8.8439 11.0174 9.15887 11.1885C9.47384 11.3597 9.71007 11.3597 9.86755 11.103C10.1038 10.8462 10.655 10.076 10.8912 9.73365C11.0487 9.39132 11.2849 9.39132 11.5999 9.47691C11.8361 9.56248 13.4108 10.4182 13.7259 10.5894L13.7259 10.5895Z" fill="white"/>
</g>
<defs>
<clipPath id="clip0_453_1943">
<rect width="16" height="16" fill="white"/>
</clipPath>
</defs>
</svg>
