<svg width="24" height="24" viewBox="0 0 24 24" fill="none" xmlns="http://www.w3.org/2000/svg">
<g clip-path="url(#clip0_528_3509)">
<path d="M3.42578 3.42529H20.5749V20.5744H3.42578V3.42529Z" stroke="white" stroke-width="1.17818"/>
<path d="M3.49125 6.1744C4.97339 6.1744 6.17489 4.9729 6.17489 3.49077C6.17489 2.00863 4.97339 0.807129 3.49125 0.807129C2.00912 0.807129 0.807617 2.00863 0.807617 3.49077C0.807617 4.9729 2.00912 6.1744 3.49125 6.1744Z" fill="#BCC8BF" stroke="white" stroke-width="1.17818"/>
<path d="M3.49125 23.1925C4.97339 23.1925 6.17489 21.991 6.17489 20.5088C6.17489 19.0267 4.97339 17.8252 3.49125 17.8252C2.00912 17.8252 0.807617 19.0267 0.807617 20.5088C0.807617 21.991 2.00912 23.1925 3.49125 23.1925Z" fill="#BCC8BF" stroke="white" stroke-width="1.17818"/>
<path d="M20.5088 6.1744C21.991 6.1744 23.1925 4.9729 23.1925 3.49077C23.1925 2.00863 21.991 0.807129 20.5088 0.807129C19.0267 0.807129 17.8252 2.00863 17.8252 3.49077C17.8252 4.9729 19.0267 6.1744 20.5088 6.1744Z" fill="#BCC8BF" stroke="white" stroke-width="1.17818"/>
<path d="M20.5088 23.1925C21.991 23.1925 23.1925 21.991 23.1925 20.5088C23.1925 19.0267 21.991 17.8252 20.5088 17.8252C19.0267 17.8252 17.8252 19.0267 17.8252 20.5088C17.8252 21.991 19.0267 23.1925 20.5088 23.1925Z" fill="#BCC8BF" stroke="white" stroke-width="1.17818"/>
</g>
<defs>
<clipPath id="clip0_528_3509">
<rect width="24" height="24" fill="white"/>
</clipPath>
</defs>
</svg>
